# xmcd CD database file
#
# Track frame offsets:
#	150
#	19187
#	39545
#	59927
#	80207
#	106580
#	125927
#	138547
#	157982
#	176762
#	193305
#	214055
#	226802
#	283507
#	300835
#	327435
#
# Disc length: 4623 seconds
#
# Revision: 0
# Processed by: cddbd v1.5.1PL2 Copyright (c) Steve Scherf et al.
# Submitted via: CDex 1.51
#
DISCID=ec120d10
DTITLE=吉田拓郎 - THE BEST PENNY LANE [Disc 2]
DYEAR=1900
DGENRE=Japanese Pop
TTITLE0=明日に向って走れ
TTITLE1=流星
TTITLE2=大阪行きは何番ホーム
TTITLE3=全部だきしめて〜tropical〜
TTITLE4=吉田町の唄
TTITLE5=祭りのあと
TTITLE6=結婚しようよ
TTITLE7=シンシア
TTITLE8=襟裳岬
TTITLE9=落陽
TTITLE10=唇をかみしめて
TTITLE11=たどり着いたらいつも雨降り
TTITLE12=アジアの片隅で
TTITLE13=心の破片
TTITLE14=永遠の嘘をついてくれ
TTITLE15=僕の人生の今は何章目ぐらいだろう
EXTD=
EXTT0=
EXTT1=
EXTT2=
EXTT3=
EXTT4=
EXTT5=
EXTT6=
EXTT7=
EXTT8=
EXTT9=
EXTT10=
EXTT11=
EXTT12=
EXTT13=
EXTT14=
EXTT15=
PLAYORDER=
